<svg fill="none" height="48" viewBox="0 0 48 48" width="48" xmlns="http://www.w3.org/2000/svg"><g clip-rule="evenodd" fill="#4895EF" fill-rule="evenodd"><path d="m34 28h-6.3431c-1.0609 0-2.0783.4214-2.8285 1.1716l-1.6568 1.6568c-.7502.7502-1.7676 1.1716-2.8285 1.1716h-6.3431c-3.3137 0-6-2.6863-6-6s2.6863-6 6-6h6.3431c1.0609 0 2.0783-.4214 2.8285-1.1716l1.6568-1.6568c.7502-.7502 1.7676-1.1716 2.8285-1.1716h6.3431c3.3137 0 6 2.6863 6 6s-2.6863 6-6 6zm-6.3431-8c-1.0609 0-2.0783.4214-2.8285 1.1716l-1.6568 1.6568c-.7502.7502-1.7676 1.1716-2.8285 1.1716h-6.3431c-1.1046 0-2 .8954-2 2s.8954 2 2 2h6.3431c1.0609 0 2.0783-.4214 2.8285-1.1716l1.6568-1.6568c.7502-.7502 1.7676-1.1716 2.8285-1.1716h6.3431c1.1046 0 2-.8954 2-2s-.8954-2-2-2z"/><path d="m34 36h-6.3431c-1.0609 0-2.0783.4214-2.8285 1.1716l-1.6568 1.6568c-.7502.7502-1.7676 1.1716-2.8285 1.1716h-6.3431c-7.73199 0-14-6.268-14-14s6.26801-14 14-14h6.3431c1.0609 0 2.0783-.4214 2.8285-1.1716l1.6568-1.65683c.7502-.75014 1.7676-1.17157 2.8285-1.17157h6.3431c7.732 0 14 6.268 14 14s-6.268 14-14 14zm-6.3431-24c-1.0609 0-2.0783.4214-2.8285 1.1716l-1.6568 1.6568c-.7502.7502-1.7676 1.1716-2.8285 1.1716h-6.3431c-5.52285 0-10 4.4772-10 10s4.47715 10 10 10h6.3431c1.0609 0 2.0783-.4214 2.8285-1.1716l1.6568-1.6568c.7502-.7502 1.7676-1.1716 2.8285-1.1716h6.3431c5.5228 0 10-4.4772 10-10s-4.4772-10-10-10z"/></g></svg>